<?xml version="1.0" encoding="UTF-8"?>
<svg xmlns="http://www.w3.org/2000/svg" xmlns:xlink="http://www.w3.org/1999/xlink" version="1.1" viewBox="0 0 1080 1080">
  <defs>
    <style>
      .cls-1, .cls-2, .cls-3, .cls-4 {
        fill: none;
      }

      .cls-5 {
        fill: #c7775c;
      }

      .cls-2 {
        stroke-linecap: round;
        stroke-width: 11px;
      }

      .cls-2, .cls-3, .cls-4 {
        stroke: #3d3d3d;
        stroke-miterlimit: 10;
      }

      .cls-3, .cls-4 {
        stroke-width: 10.4px;
      }

      .cls-6, .cls-7 {
        isolation: isolate;
      }

      .cls-8 {
        fill: #3d3d3d;
      }

      .cls-9, .cls-7 {
        fill: #f1f2f2;
      }

      .cls-10 {
        clip-path: url(#clippath-1);
      }

      .cls-11 {
        fill: #c9c9c9;
      }

      .cls-12 {
        fill: #b76955;
      }

      .cls-4 {
        stroke-linecap: square;
      }

      .cls-7 {
        font-family: BrittanySignatureRegular, 'Brittany Signature';
        font-size: 40.9px;
      }

      .cls-13 {
        clip-path: url(#clippath);
      }
    </style>
    <clipPath id="clippath">
      <rect class="cls-1" x="288.5" y="174.1" width="503" height="68.6"/>
    </clipPath>
    <clipPath id="clippath-1">
      <rect class="cls-1" width="1080" height="1080"/>
    </clipPath>
  </defs>
  <!-- Generator: Adobe Illustrator 28.6.0, SVG Export Plug-In . SVG Version: 1.2.0 Build 709)  -->
  <g>
    <g id="Layer_1">
      <g id="Layer_1-2" data-name="Layer_1">
        <g>
          <g class="cls-13">
            <g>
              <g>
                <g>
                  <line class="cls-4" x1="373.7" y1="198.7" x2="381.6" y2="198.7"/>
                  <line class="cls-4" x1="373.7" y1="179.4" x2="400.6" y2="179.4"/>
                </g>
                <g>
                  <line class="cls-4" x1="701.3" y1="198.7" x2="693.3" y2="198.7"/>
                  <line class="cls-4" x1="701.3" y1="179.4" x2="674.4" y2="179.4"/>
                </g>
                <polyline class="cls-4" points="352.1 179.4 352.1 237.5 294 179.4 294 237.4"/>
                <g>
                  <line class="cls-4" x1="743.9" y1="199.5" x2="752.6" y2="199.5"/>
                  <g>
                    <line class="cls-3" x1="722.5" y1="242.6" x2="722.5" y2="179.3"/>
                    <line class="cls-3" x1="789" y1="248.5" x2="760.4" y2="219.9"/>
                    <path class="cls-3" d="M722.5,179.5h34.3c11.1,0,20.1,9,20.1,20.1h0c0,11.1-9,20.1-20.1,20.1h-34.3v-40.1h0Z"/>
                  </g>
                </g>
                <g>
                  <polyline class="cls-4" points="368.4 245.2 439.5 174.1 508.3 242.8"/>
                  <polyline class="cls-4" points="482 245.1 439.7 202.8 396.9 245.7"/>
                </g>
                <g>
                  <polyline class="cls-4" points="562.4 246.6 634.9 174.1 705.7 244.8"/>
                  <polyline class="cls-4" points="677 244.7 635.1 202.8 592 246"/>
                </g>
                <g>
                  <polyline class="cls-4" points="464.5 169.7 537.4 242.6 610.9 169.1"/>
                  <polyline class="cls-4" points="582.6 168.8 537.6 213.9 492.6 168.9"/>
                </g>
              </g>
              <g class="cls-6">
                <text class="cls-7" transform="translate(460.5 218.7)"><tspan x="0" y="0">muhammed</tspan></text>
              </g>
            </g>
          </g>
          <polygon class="cls-8" points="540 299.1 553.8 275.3 526.2 275.3 540 299.1"/>
        </g>
        <g class="cls-10">
          <g>
            <g>
              <polygon class="cls-9" points="770.7 1229.8 482.1 1229.8 482.1 914.8 598.1 914.8 770.7 1229.8"/>
              <polygon class="cls-9" points="770.7 1229.8 598.1 914.8 598.1 1229.8 770.7 1229.8"/>
              <polygon class="cls-9" points="309.5 1229.8 482.1 914.8 482.1 1229.8 309.5 1229.8"/>
            </g>
            <g>
              <g>
                <path class="cls-12" d="M319.1,670.5h0c20.8-4.2,41,9.2,45.3,30l11.5,56.7c4.2,20.8-9.2,41-30,45.3h0c-20.8,4.2-41-9.2-45.3-30l-11.5-56.7c-4.2-20.8,9.2-41,30-45.3Z"/>
                <path class="cls-12" d="M734.1,802.4h0c-20.8-4.2-34.2-24.5-30-45.3l11.5-56.7c4.2-20.8,24.5-34.2,45.3-30h0c20.8,4.2,34.2,24.5,30,45.3l-11.5,56.7c-4.2,20.8-24.5,34.2-45.3,30Z"/>
              </g>
              <circle class="cls-5" cx="540.7" cy="702.1" r="220.5"/>
              <g>
                <path class="cls-2" d="M650.5,671.2s-31.6-19.6-79.8-1.6"/>
                <path class="cls-2" d="M514.5,671.2s-31.6-19.6-79.8-1.6"/>
              </g>
              <path class="cls-9" d="M487.6,681.5c-14.4-4.5-26.8-1.9-32,0-4.4,1.7-16.5,6.6-21.8,13.2-2.4,3.1-6.5,7.6-7.6,14.9-.3,1.8-1.5,9.9,3.2,16.5,2.3,3.2,5,4.8,9.2,6.9,10.2,5.2,25.9,13.8,28.6,14.9s12.7,6.9,20.7,6.9,20.1,2.5,28.7-6.9c12-13.2,5-35.1,4.4-36.9-7.6-21.5-29.8-28.4-33.3-29.5h0Z"/>
              <path class="cls-8" d="M494.6,695.7c-1.8,0-3.5.3-5.1.8.8,1.6,1.2,3.4,1.2,5.3,0,6.9-5.5,12.4-12.3,12.7v17.4c0,9,7.3,16.2,16.2,16.2s16.2-7.3,16.2-16.2v-20c0-9-7.3-16.2-16.2-16.2h0Z"/>
              <path class="cls-9" d="M592.4,681.5c14.3-4.5,26.8-1.9,32,0,4.4,1.7,16.5,6.6,21.8,13.2,2.4,3.1,6.5,7.6,7.7,14.9.3,1.8,1.5,9.9-3.2,16.5-2.3,3.2-5,4.8-9.2,6.9-10.2,5.2-25.9,13.8-28.7,14.9s-12.7,6.9-20.7,6.9-20.1,2.5-28.7-6.9c-12-13.2-5-35.1-4.4-36.9,7.6-21.5,29.8-28.4,33.3-29.5h0Z"/>
              <path class="cls-8" d="M589.1,695.7c-1.8,0-3.5.3-5.1.8.8,1.6,1.2,3.4,1.2,5.3,0,6.9-5.5,12.4-12.3,12.7v17.4c0,9,7.3,16.2,16.2,16.2s16.2-7.3,16.2-16.2v-20c0-9-7.3-16.2-16.2-16.2h0Z"/>
              <g>
                <path class="cls-8" d="M718.1,575.3s18.7,30.8,26,61.4,6.5,72.7,11.4,81c.2.4.8,1.3,1.7,1.4,6.2.6,17.6-42.4,19.9-68.5,1.8-20,1-61.2-34-113.8,0,0-27.5,18.2-26.4,26.2,1.1,8,1.4,12.4,1.4,12.4h0Z"/>
                <path class="cls-8" d="M361.9,575.3s-18.7,30.8-26,61.4-6.5,72.7-11.4,81c-.2.4-.8,1.3-1.7,1.4-6.2.6-17.6-42.4-19.9-68.5-1.8-20-1-61.2,34-113.8,0,0,27.5,18.2,26.4,26.2-1.1,8-1.4,12.4-1.4,12.4h0Z"/>
              </g>
              <g>
                <path class="cls-9" d="M350.3,508.5h379.3c18.2,0,32.9,14.7,32.9,32.9h0c0,18.2-14.7,32.9-32.9,32.9h-379.3c-18.2,0-32.9-14.7-32.9-32.9h0c0-18.2,14.7-32.9,32.9-32.9Z"/>
                <path class="cls-11" d="M516.9,337h46.2c94.7,0,171.5,76.9,171.5,171.5h-389.2c0-94.6,76.9-171.5,171.5-171.5Z"/>
              </g>
              <path class="cls-8" d="M482.1,914.8c12.9-4.5,33.2-9.8,58.4-9.8,24.9,0,44.9,5.5,57.7,10-38.7.1-77.5-.4-116.1-.3Z"/>
              <path class="cls-8" d="M482.1,914.8s56.8,39.8,116,.3"/>
              <path class="cls-8" d="M540,883.9c9.1,0,16.5-7.4,16.5-16.5h-33.1c0,9.1,7.4,16.5,16.5,16.5h0Z"/>
              <path class="cls-2" d="M586.8,830.7c-13.6,8.6-29.7,13.6-46.9,13.6s-33.1-4.9-46.6-13.4"/>
              <path class="cls-2" d="M547.8,795.8c-2.3,1.4-4.9,2.2-7.8,2.2s-5.5-.8-7.7-2.2"/>
            </g>
          </g>
        </g>
      </g>
    </g>
  </g>
</svg>