<?xml version="1.0" encoding="UTF-8"?>
<svg xmlns="http://www.w3.org/2000/svg" xmlns:xlink="http://www.w3.org/1999/xlink" version="1.1" viewBox="0 0 1080 1080">
  <defs>
    <style>
      .cls-1, .cls-2 {
        fill: none;
      }

      .cls-3 {
        fill: #c7775c;
      }

      .cls-2 {
        stroke: #3d3d3d;
        stroke-linecap: round;
        stroke-miterlimit: 10;
        stroke-width: 12.5px;
      }

      .cls-4 {
        fill: #3d3d3d;
      }

      .cls-5 {
        fill: #f1f2f2;
      }

      .cls-6 {
        fill: #c9c9c9;
      }

      .cls-7 {
        fill: #b76955;
      }

      .cls-8 {
        clip-path: url(#clippath);
      }
    </style>
    <clipPath id="clippath">
      <rect class="cls-1" width="1080" height="1080"/>
    </clipPath>
  </defs>
  <!-- Generator: Adobe Illustrator 28.6.0, SVG Export Plug-In . SVG Version: 1.2.0 Build 709)  -->
  <g>
    <g id="Layer_1">
      <g id="Layer_1-2" data-name="Layer_1">
        <g class="cls-8">
          <g>
            <g>
              <polygon class="cls-5" points="802.1 1151.4 474.2 1151.4 474.2 793.4 606 793.4 802.1 1151.4"/>
              <polygon class="cls-5" points="802.1 1151.4 606 793.4 606 1151.4 802.1 1151.4"/>
              <polygon class="cls-5" points="278.1 1151.4 474.2 793.4 474.2 1151.4 278.1 1151.4"/>
            </g>
            <g>
              <g>
                <path class="cls-7" d="M289,515.9h0c23.6-4.8,46.6,10.5,51.4,34.1l13.1,64.4c4.8,23.6-10.5,46.6-34.1,51.4h0c-23.6,4.8-46.6-10.5-51.4-34.1l-13.1-64.4c-4.8-23.6,10.5-46.6,34.1-51.4Z"/>
                <path class="cls-7" d="M760.5,665.8h0c-23.6-4.8-38.8-27.8-34.1-51.4l13.1-64.4c4.8-23.6,27.8-38.8,51.4-34.1h0c23.6,4.8,38.8,27.8,34.1,51.4l-13.1,64.4c-4.8,23.6-27.8,38.8-51.4,34.1Z"/>
              </g>
              <circle class="cls-3" cx="540.8" cy="551.8" r="250.5"/>
              <g>
                <path class="cls-2" d="M665.5,516.7s-35.9-22.3-90.7-1.8"/>
                <path class="cls-2" d="M511.1,516.7s-35.9-22.3-90.7-1.8"/>
              </g>
              <path class="cls-5" d="M480.4,528.4c-16.3-5.1-30.5-2.2-36.3,0-5,1.9-18.8,7.5-24.7,15-2.8,3.5-7.4,8.7-8.7,16.9-.3,2.1-1.8,11.2,3.6,18.8,2.6,3.7,5.7,5.4,10.4,7.8,11.6,5.9,29.4,15.6,32.5,16.9s14.4,7.8,23.5,7.8,22.8,2.8,32.5-7.8c13.6-14.9,5.7-39.9,5-41.9-8.6-24.4-33.8-32.2-37.9-33.5h0Z"/>
              <path class="cls-4" d="M488.5,544.5c-2,0-4,.3-5.8,1,.9,1.8,1.3,3.9,1.3,6,0,7.8-6.2,14.1-13.9,14.4v19.8c0,10.2,8.2,18.4,18.4,18.4s18.4-8.2,18.4-18.4v-22.8c0-10.2-8.2-18.4-18.4-18.4h0Z"/>
              <path class="cls-5" d="M599.6,528.4c16.3-5.1,30.5-2.2,36.3,0,5,1.9,18.8,7.5,24.7,15,2.8,3.5,7.4,8.7,8.7,16.9.3,2.1,1.8,11.2-3.6,18.8-2.6,3.7-5.7,5.4-10.4,7.8-11.6,5.9-29.4,15.6-32.5,16.9s-14.4,7.8-23.5,7.8-22.8,2.8-32.5-7.8c-13.6-14.9-5.7-39.9-5-41.9,8.6-24.4,33.8-32.2,37.9-33.5h0Z"/>
              <path class="cls-4" d="M595.8,544.5c-2,0-4,.3-5.8,1,.9,1.8,1.3,3.9,1.3,6,0,7.8-6.2,14.1-13.9,14.4v19.8c0,10.2,8.2,18.4,18.4,18.4s18.4-8.2,18.4-18.4v-22.8c0-10.2-8.2-18.4-18.4-18.4h0Z"/>
              <g>
                <path class="cls-4" d="M742.4,407.7s21.2,35,29.5,69.8c8.3,34.7,7.4,82.6,13,92,.3.5.9,1.5,1.9,1.6,7.1.7,20-48.2,22.6-77.8,2-22.7,1.1-69.6-38.6-129.3,0,0-31.2,20.6-29.9,29.7,1.2,9.1,1.6,14.1,1.6,14.1h0Z"/>
                <path class="cls-4" d="M337.6,407.7s-21.2,35-29.5,69.8-7.4,82.6-13,92c-.3.5-.9,1.5-1.9,1.6-7.1.7-20-48.2-22.6-77.8-2-22.7-1.1-69.6,38.6-129.3,0,0,31.2,20.6,29.9,29.7-1.2,9.1-1.6,14.1-1.6,14.1h0Z"/>
              </g>
              <g>
                <path class="cls-5" d="M324.5,331.9h430.9c20.6,0,37.4,16.7,37.4,37.4h0c0,20.6-16.7,37.4-37.4,37.4h-430.9c-20.6,0-37.4-16.7-37.4-37.4h0c0-20.6,16.7-37.4,37.4-37.4Z"/>
                <path class="cls-6" d="M513.8,137.1h52.5c107.5,0,194.8,87.3,194.8,194.8h-442.2c0-107.5,87.3-194.8,194.8-194.8Z"/>
              </g>
              <path class="cls-4" d="M474.2,793.4c14.7-5.1,37.7-11.2,66.3-11.1,28.3.1,51,6.2,65.6,11.4-43.9.1-88-.4-131.9-.3Z"/>
              <path class="cls-4" d="M474.2,793.4s64.5,45.2,131.7.4"/>
              <path class="cls-4" d="M540,758.3c10.4,0,18.8-8.4,18.8-18.8h-37.6c0,10.4,8.4,18.8,18.8,18.8h0Z"/>
              <path class="cls-2" d="M593.1,697.9c-15.4,9.8-33.7,15.4-53.3,15.4s-37.6-5.6-53-15.2"/>
              <path class="cls-2" d="M548.8,658.2c-2.6,1.6-5.6,2.6-8.9,2.6s-6.2-.9-8.8-2.5"/>
            </g>
          </g>
        </g>
      </g>
    </g>
  </g>
</svg>