<?xml version="1.0" encoding="UTF-8"?>
<svg xmlns="http://www.w3.org/2000/svg" xmlns:xlink="http://www.w3.org/1999/xlink" version="1.1" viewBox="0 0 1788.9 638.96">
  <defs>
    <style>
      .cls-1, .cls-2, .cls-3 {
        fill: none;
      }

      .cls-4 {
        font-family: BrittanySignatureRegular, 'Brittany Signature';
        font-size: 120.57px;
      }

      .cls-4, .cls-5, .cls-6, .cls-7 {
        isolation: isolate;
      }

      .cls-2, .cls-3 {
        stroke: #f0d000;
        stroke-miterlimit: 10;
        stroke-width: 30.72px;
      }

      .cls-8 {
        fill: #f0d000;
      }

      .cls-9 {
        fill: #121212;
      }

      .cls-6 {
        font-family: Montserrat-BoldItalic, Montserrat;
        font-weight: 700;
      }

      .cls-6, .cls-7 {
        font-size: 35.32px;
        font-style: italic;
      }

      .cls-7 {
        font-family: Montserrat-Italic, Montserrat;
      }

      .cls-3 {
        stroke-linecap: square;
      }

      .cls-10 {
        clip-path: url(#clippath);
      }
    </style>
    <clipPath id="clippath">
      <rect class="cls-1" x="153.5" y="223.05" width="1481.91" height="202.04"/>
    </clipPath>
  </defs>
  <!-- Generator: Adobe Illustrator 28.6.0, SVG Export Plug-In . SVG Version: 1.2.0 Build 709)  -->
  <g>
    <g id="Layer_1">
      <g id="Layer_1-2" data-name="Layer_1">
        <g id="Layer_1-2">
          <g>
            <g class="cls-5">
              <g class="cls-5">
                <g class="cls-5">
                  <text class="cls-7" transform="translate(430.08 491.22)"><tspan x="0" y="0">Graphic Designer | Co-founder of</tspan></text>
                </g>
              </g>
              <g class="cls-5">
                <g class="cls-5">
                  <text class="cls-6" transform="translate(1026.49 491.22)"><tspan x="0" y="0">Team Komanga</tspan></text>
                </g>
              </g>
              <g class="cls-5">
                <g class="cls-5">
                  <text class="cls-7" transform="translate(1326.07 491.22)"><tspan x="0" y="0">.</tspan></text>
                </g>
              </g>
            </g>
            <g class="cls-10">
              <g>
                <g>
                  <g>
                    <line class="cls-3" x1="404.39" y1="295.59" x2="427.89" y2="295.59"/>
                    <line class="cls-3" x1="404.39" y1="238.73" x2="483.75" y2="238.73"/>
                  </g>
                  <g>
                    <line class="cls-3" x1="1369.75" y1="295.59" x2="1346.25" y2="295.59"/>
                    <line class="cls-3" x1="1369.75" y1="238.73" x2="1290.39" y2="238.73"/>
                  </g>
                  <polyline class="cls-3" points="340.85 238.73 340.85 409.97 169.6 238.73 169.6 409.79"/>
                  <g>
                    <line class="cls-3" x1="1495.16" y1="297.96" x2="1520.81" y2="297.96"/>
                    <g>
                      <line class="cls-2" x1="1432.07" y1="425.09" x2="1432.07" y2="238.51"/>
                      <line class="cls-2" x1="1628.19" y1="442.34" x2="1543.84" y2="357.99"/>
                      <path class="cls-2" d="M1432.07,239.14h101.02c32.64,0,59.14,26.5,59.14,59.14h0c0,32.64-26.5,59.14-59.14,59.14h-101.02v-118.28h0Z"/>
                    </g>
                  </g>
                  <g>
                    <polyline class="cls-3" points="388.75 432.74 598.44 223.05 800.99 425.59"/>
                    <polyline class="cls-3" points="723.72 432.49 599.05 307.82 472.79 434.07"/>
                  </g>
                  <g>
                    <polyline class="cls-3" points="960.57 436.64 1174.16 223.05 1382.67 431.56"/>
                    <polyline class="cls-3" points="1298.08 431.14 1174.76 307.82 1047.56 435.02"/>
                  </g>
                  <g>
                    <polyline class="cls-3" points="671.87 210.22 886.74 425.09 1103.47 208.35"/>
                    <polyline class="cls-3" points="1020.03 207.62 887.34 340.32 754.72 207.7"/>
                  </g>
                </g>
                <g class="cls-5">
                  <g class="cls-5">
                    <g class="cls-5">
                      <text class="cls-4" transform="translate(660.37 354.52)"><tspan x="0" y="0">muhammed</tspan></text>
                    </g>
                  </g>
                </g>
              </g>
            </g>
            <g>
              <g class="cls-5">
                <g class="cls-5">
                  <g class="cls-5">
                    <text class="cls-6" transform="translate(990.51 168.36)"><tspan x="0" y="0">Navar</tspan></text>
                  </g>
                </g>
                <g class="cls-5">
                  <g class="cls-5">
                    <text class="cls-7" transform="translate(1104.13 168.36)"><tspan x="0" y="0" xml:space="preserve"> MP</tspan></text>
                  </g>
                </g>
              </g>
              <g>
                <g>
                  <rect class="cls-8" x="897.34" y="139.83" width="34.13" height="34.13" rx="8.04" ry="8.04"/>
                  <path class="cls-9" d="M920.34,147.67h3.13l-6.88,7.84,8.04,10.63h-6.31l-4.94-6.46-5.66,6.46h-3.13l7.29-8.38-7.7-10.08h6.47l4.46,5.9,5.23-5.9h0ZM919.24,164.29h1.74l-11.24-14.85h-1.87l11.37,14.85Z"/>
                </g>
                <g>
                  <rect class="cls-8" x="616.69" y="139.83" width="34.13" height="34.13" rx="8.04" ry="8.04"/>
                  <g>
                    <path d="M644.09,152.61c-.05-1.11-.23-1.86-.48-2.52-.27-.68-.62-1.26-1.2-1.84s-1.16-.93-1.84-1.2c-.66-.26-1.42-.43-2.53-.48-1.11-.05-1.46-.06-4.29-.06s-3.18,0-4.29.06-1.86.23-2.52.48c-.68.27-1.26.62-1.84,1.2s-.93,1.16-1.2,1.84c-.26.66-.43,1.42-.48,2.52-.05,1.11-.06,1.46-.06,4.29s.01,3.18.06,4.29.23,1.86.48,2.52c.27.68.62,1.26,1.2,1.84s1.16.93,1.84,1.2c.66.26,1.42.43,2.53.48,1.11.05,1.46.06,4.29.06s3.18,0,4.29-.06,1.86-.23,2.53-.48c.68-.27,1.26-.62,1.84-1.2s.93-1.16,1.2-1.84c.26-.66.43-1.42.48-2.52.05-1.11.06-1.46.06-4.29s-.01-3.18-.06-4.29h-.01ZM642.22,161.09c-.05,1.01-.22,1.56-.36,1.93-.19.49-.41.83-.78,1.19-.36.36-.71.59-1.2.78-.37.14-.92.31-1.93.36-1.1.05-1.43.06-4.2.06s-3.11,0-4.2-.06c-1.01-.05-1.56-.22-1.93-.36-.49-.19-.83-.41-1.2-.78s-.59-.71-.78-1.19c-.14-.37-.31-.92-.36-1.93-.05-1.1-.06-1.43-.06-4.2s.01-3.1.06-4.2c.05-1.01.22-1.56.36-1.93.19-.49.41-.83.78-1.2s.71-.59,1.2-.78c.37-.14.92-.31,1.93-.36.96-.04,1.33-.06,3.27-.06h.93c2.78,0,3.11,0,4.2.06,1.01.05,1.56.22,1.93.36.49.19.83.41,1.2.78.36.36.59.71.78,1.2.14.37.31.92.36,1.93.05,1.1.06,1.43.06,4.2s-.01,3.1-.06,4.2Z"/>
                    <path d="M633.75,151.56c-2.95,0-5.34,2.39-5.34,5.34s2.39,5.34,5.34,5.34,5.34-2.39,5.34-5.34-2.39-5.34-5.34-5.34ZM633.75,160.36c-1.92,0-3.47-1.55-3.47-3.47s1.55-3.47,3.47-3.47h0c1.92,0,3.47,1.55,3.47,3.47s-1.55,3.47-3.47,3.47Z"/>
                    <path d="M639.31,150.1h0c-.69,0-1.25.56-1.25,1.25s.56,1.25,1.25,1.25,1.25-.56,1.25-1.25-.56-1.25-1.25-1.25Z"/>
                  </g>
                </g>
                <g>
                  <rect class="cls-8" x="757.02" y="139.83" width="34.13" height="34.13" rx="8.04" ry="8.04"/>
                  <path class="cls-9" d="M782.63,149.62c-.22-.18-.55-.21-.7-.21-.67,0-1.71.37-6.64,2.43-1.74.73-5.19,2.22-10.38,4.48-.83.34-1.28.67-1.32.99-.07.62.82.82,1.93,1.17.92.3,2.14.64,2.77.65.58,0,1.22-.22,1.93-.71,4.85-3.28,7.34-4.94,7.5-4.97.12-.03.27-.06.37.03s.1.27.09.31c-.09.37-4.64,4.52-4.91,4.79-1.01,1.04-2.15,1.68-.39,2.83,1.53,1.01,2.4,1.65,3.97,2.67.99.65,1.78,1.42,2.82,1.33.47-.04.96-.49,1.22-1.82.59-3.14,1.75-9.98,2.02-12.8.03-.24,0-.55-.03-.7s-.07-.34-.25-.49v.02h0Z"/>
                </g>
                <g>
                  <rect class="cls-8" x="944.12" y="139.83" width="34.13" height="34.13" rx="8.04" ry="8.04"/>
                  <path class="cls-9" d="M967.84,161.67l.77-4.78h-4.52v-3.33c0-1.37.51-2.39,2.56-2.39h2.22v-4.35c-1.19-.17-2.56-.34-3.75-.34-3.93,0-6.66,2.39-6.66,6.66v3.75h-4.27v4.78h4.27v12.03c.94.17,1.88.26,2.82.26s1.88-.09,2.82-.26v-12.03h3.75,0Z"/>
                </g>
                <g>
                  <rect class="cls-8" x="850.57" y="139.83" width="34.13" height="34.13" rx="8.04" ry="8.04"/>
                  <path class="cls-9" d="M865.49,146.65c-2.84.63-5.17,2.21-6.77,4.59-2.8,4.2-2.24,9.83,1.33,13.42,1.07,1.08,2.7,2.12,3.93,2.52.46.15.51.15.72,0,.22-.15.23-.19.23-1.26v-1.1l-.82.05c-.96.05-1.7-.12-2.15-.5-.16-.13-.47-.58-.68-.99-.35-.69-.61-1.01-1.34-1.65-.24-.21-.25-.22-.08-.34.4-.3,1.21,0,1.72.6.89,1.09,1.24,1.38,1.75,1.49.46.09.87.06,1.51-.13.08-.03.2-.22.25-.45.06-.21.2-.54.33-.72l.22-.33-.75-.15c-1.58-.33-2.56-.89-3.2-1.86-.6-.89-.79-1.67-.8-3.11,0-1.36.15-1.92.74-2.68.26-.34.29-.44.21-.63-.14-.34-.1-1.75.05-2.18.12-.32.19-.37.44-.4.42-.05,1.2.22,1.99.67l.68.39.6-.14c.85-.2,3.39-.19,4.15,0l.58.15.54-.33c.72-.43,1.63-.76,2.08-.76.24,0,.41.16.51.48.16.55.19,1.54.05,2.02-.07.28-.06.36.15.63,1.01,1.34,1.13,3.56.27,5.39-.58,1.2-1.8,2.04-3.43,2.35l-.78.15.29.51.3.52.03,2.08.04,2.08.23.15c.21.14.26.14.71-.02.74-.25,2.02-.94,2.72-1.47,4.15-3.11,5.49-8.68,3.19-13.32-1.35-2.73-3.9-4.82-6.82-5.6-1.28-.34-3.68-.41-4.89-.14l-.03.02h0Z"/>
                </g>
                <g>
                  <rect class="cls-8" x="803.79" y="139.83" width="34.13" height="34.13" rx="8.04" ry="8.04"/>
                  <path class="cls-9" d="M826.97,150.74c-1.61-1.62-3.79-2.52-6.07-2.52-4.74,0-8.59,3.85-8.59,8.58,0,1.62.45,3.2,1.31,4.57l.2.32-.87,3.17,3.25-.85.31.19c1.32.78,2.83,1.2,4.37,1.2h0c4.73,0,8.58-3.85,8.59-8.58,0-2.28-.9-4.47-2.51-6.07h.01ZM825.95,160.49c-.21.6-1.27,1.18-1.74,1.23-.47.04-.92.21-3.1-.65-2.62-1.03-4.28-3.72-4.41-3.9-.13-.17-1.05-1.4-1.05-2.67s.67-1.89.9-2.15.52-.32.69-.32h.49c.18,0,.39.02.58.45h0c.23.51.73,1.79.8,1.92s.11.28.02.45c-.09.17-.13.28-.26.43s-.27.34-.39.45c-.13.13-.26.27-.11.53s.67,1.1,1.44,1.79c.99.88,1.82,1.15,2.08,1.28s.41.11.56-.06.64-.75.82-1.01.34-.22.58-.13,1.51.71,1.76.84.43.19.5.3c.06.11.06.62-.15,1.23h-.01Z"/>
                </g>
                <g>
                  <rect class="cls-8" x="710.24" y="139.83" width="34.13" height="34.13" rx="8.04" ry="8.04"/>
                  <path class="cls-9" d="M737.42,151.81c-.24-.91-.96-1.62-1.87-1.87-1.65-.44-8.25-.44-8.25-.44,0,0-6.6,0-8.25.44-.91.24-1.62.96-1.87,1.87-.44,1.65-.44,5.08-.44,5.08,0,0,0,3.44.44,5.08.24.91.96,1.62,1.87,1.87,1.65.44,8.25.44,8.25.44,0,0,6.6,0,8.25-.44.91-.24,1.62-.96,1.87-1.87.44-1.65.44-5.08.44-5.08,0,0,0-3.44-.44-5.08ZM725.19,160.05v-6.33l5.48,3.17-5.48,3.17h0Z"/>
                </g>
                <g>
                  <rect class="cls-8" x="663.46" y="139.83" width="34.13" height="34.13" rx="8.04" ry="8.04"/>
                  <g>
                    <path d="M676.33,150.59c.58,0,1.11.04,1.6.18.49.09.89.27,1.25.49s.62.53.8.94c.18.4.27.89.27,1.43,0,.62-.13,1.16-.45,1.56-.27.4-.71.76-1.25,1.03.76.22,1.34.62,1.69,1.16.35.53.58,1.2.58,1.96,0,.62-.13,1.16-.36,1.6-.22.45-.58.85-.98,1.11-.4.27-.89.49-1.43.62-.53.13-1.07.22-1.6.22h-5.97v-12.29h5.85,0ZM675.97,155.58c.49,0,.89-.13,1.2-.36s.45-.62.45-1.11c0-.27-.04-.53-.13-.71-.09-.18-.22-.31-.4-.45-.18-.09-.36-.18-.58-.22s-.45-.04-.71-.04h-2.58v2.9h2.76,0ZM676.1,160.85c.27,0,.53-.04.76-.09.22-.04.45-.13.62-.27s.31-.27.45-.49c.09-.22.18-.49.18-.8,0-.62-.18-1.07-.53-1.38-.36-.27-.85-.4-1.43-.4h-2.94v3.43h2.89Z"/>
                    <path d="M684.71,160.8c.36.36.89.53,1.6.53.49,0,.94-.13,1.29-.36.36-.27.58-.53.67-.8h2.18c-.36,1.07-.89,1.83-1.6,2.32-.71.45-1.56.71-2.58.71-.71,0-1.34-.13-1.92-.36-.58-.22-1.02-.53-1.43-.98-.4-.4-.71-.89-.89-1.47-.22-.58-.31-1.2-.31-1.92,0-.67.09-1.3.31-1.87s.53-1.07.94-1.52c.4-.4.89-.76,1.43-.98.58-.22,1.16-.36,1.87-.36.76,0,1.43.13,2.01.45.58.31,1.02.67,1.38,1.2.36.49.62,1.07.8,1.69.09.62.13,1.25.09,1.96h-6.46c0,.73.26,1.39.62,1.75h0ZM687.52,156.12c-.31-.31-.8-.49-1.38-.49-.4,0-.71.09-.98.22s-.45.31-.62.49c-.18.18-.27.4-.31.62s-.09.4-.09.58h4.01c-.09-.66-.31-1.11-.62-1.42h-.01ZM683.6,151.44h4.99v1.2h-4.99v-1.2Z"/>
                  </g>
                </g>
              </g>
            </g>
          </g>
        </g>
      </g>
    </g>
  </g>
</svg>